<?xml version="1.0"?>
<svg xmlns="http://www.w3.org/2000/svg" xmlns:xlink="http://www.w3.org/1999/xlink" xmlns:svgjs="http://svgjs.com/svgjs" version="1.1" width="512" height="512" x="0" y="0" viewBox="0 0 487 487.264" style="enable-background:new 0 0 512 512" xml:space="preserve"><g><linearGradient xmlns="http://www.w3.org/2000/svg" id="a"><stop stop-opacity="1" stop-color="#f54b64" offset="0"/><stop stop-opacity="1" stop-color="#f78361" offset="1"/></linearGradient><linearGradient xmlns="http://www.w3.org/2000/svg" xmlns:xlink="http://www.w3.org/1999/xlink" id="b" gradientUnits="userSpaceOnUse" x1="100.244" x2="95.548" xlink:href="#a" y1="511.248" y2="18.28"/><linearGradient xmlns="http://www.w3.org/2000/svg" xmlns:xlink="http://www.w3.org/1999/xlink" id="c" gradientUnits="userSpaceOnUse" x1="240.996" x2="236.3" xlink:href="#a" y1="509.912" y2="16.944"/><linearGradient xmlns="http://www.w3.org/2000/svg" xmlns:xlink="http://www.w3.org/1999/xlink" id="d" gradientUnits="userSpaceOnUse" x1="387.764" x2="383.068" xlink:href="#a" y1="508.512" y2="15.544"/><path xmlns="http://www.w3.org/2000/svg" d="m96.132812 127.265625c-26.511718 0-48-21.492187-48-48 0-26.511719 21.488282-48 48-48 26.507813 0 48 21.488281 48 48-.027343 26.496094-21.503906 47.972656-48 48zm0-80c-17.675781 0-32 14.324219-32 32 0 17.671875 14.324219 32 32 32 17.671876 0 32-14.328125 32-32 0-17.675781-14.328124-32-32-32zm0 0" fill="url(#b)" data-original="url(#b)" style=""/><path xmlns="http://www.w3.org/2000/svg" d="m288.132812 351.265625v48h-88v-109.769531l-48-16v-82.230469h72c22.078126-.027344 39.972657-17.921875 40-40v-16h-224c-22.082031.023437-39.972656 17.917969-40 40v88c0 13.253906 10.746094 24 24 24h16v144h-40v56h16v-40h112v40h16v-72h144v72h16v-120h160v120h16v-136zm-248-168v88h-16c-4.417968 0-8-3.582031-8-8v-88c0-13.257813 10.746094-24 24-24h208c0 13.253906-10.746093 24-24 24h-88v109.765625l48 16v98.234375h-24v-85.546875l-80-30v147.546875h-24v-248zm88 216v32h-32v-124.457031l48 18v74.457031zm0 0" fill="url(#c)" data-original="url(#c)" style=""/><path xmlns="http://www.w3.org/2000/svg" d="m352.132812 327.265625h64v-200h46.320313l-78.320313-127.265625-78.320312 127.265625h46.320312zm-17.679687-216 49.679687-80.738281 49.679688 80.738281h-33.679688v200h-32v-200zm0 0" fill="url(#d)" data-original="url(#d)" style=""/></g></svg>
